<svg xmlns="http://www.w3.org/2000/svg" viewBox="0 0 512 512" role="img" aria-label="Vlajkový svet">
  <rect width="512" height="512" fill="#fff7ed"/>
  <circle cx="122" cy="118" r="104" fill="#fde68a"/>
  <circle cx="410" cy="122" r="96" fill="#bae6fd"/>
  <circle cx="386" cy="406" r="108" fill="#bbf7d0"/>
  <path d="M132 356c44 54 131 70 196 24 77-54 96-160 42-237-55-78-162-96-239-42-74 53-95 153-46 229" fill="#38bdf8"/>
  <path d="M126 250c27 4 46 18 63 44 14 21 35 25 55 12 22-14 23-36 10-56-17-26-14-43 11-58 31-18 34-48 10-67-38 0-77 14-109 37-29 21-50 51-60 88z" fill="#22c55e"/>
  <path d="M348 181c-28 17-34 43-19 69 12 20 6 37-16 52-27 19-31 45-11 67 35-10 66-29 91-57 33-39 43-87 33-133-25-11-52-10-78 2z" fill="#16a34a"/>
  <path d="M150 108h197c31 0 56 25 56 56v118c0 31-25 56-56 56H150V108z" fill="#ffffff" stroke="#1f2937" stroke-width="18" stroke-linejoin="round"/>
  <path d="M150 108h253v77H150z" fill="#ef4444"/>
  <path d="M150 185h253v76H150z" fill="#ffffff"/>
  <path d="M150 261h253v77H150z" fill="#2563eb"/>
  <path d="M118 83v370" stroke="#1f2937" stroke-width="28" stroke-linecap="round"/>
  <path d="M105 456h94" stroke="#1f2937" stroke-width="28" stroke-linecap="round"/>
</svg>
